<svg width="361" height="405" viewBox="0 0 361 405" fill="none" xmlns="http://www.w3.org/2000/svg">
<path d="M356 124.852V122.165L353.76 120.682L183.26 7.83058L180.5 6.00397L177.74 7.83058L7.24031 120.682L5 122.165V124.852V280.148V282.835L7.24031 284.318L177.74 397.169L180.5 398.996L183.26 397.169L353.76 284.318L356 282.835V280.148V124.852Z" stroke="url(#paint0_linear_249_38487)" stroke-width="10"/>
<path d="M40.5 138.5L10 124.5M320.5 139L351 125M180.5 12.5V43.5M181 361L180.5 392.5" stroke="url(#paint1_linear_249_38487)" stroke-width="10"/>
<path d="M320.5 265.5L351 280M40.5 266.5L10 280" stroke="url(#paint2_linear_249_38487)" stroke-width="10"/>
<path d="M35.5 139L180.5 43L325.5 139.5" stroke="url(#paint3_linear_249_38487)" stroke-width="10"/>
<path d="M325.5 265L181 361.5L35.5 266" stroke="url(#paint4_linear_249_38487)" stroke-width="10"/>
<path d="M10 284C65.8333 320.167 177.9 392.5 179.5 392.5V362L40.5 269L10 284Z" fill="url(#paint5_linear_249_38487)" stroke="url(#paint6_linear_249_38487)"/>
<path d="M350.5 121.5C294.667 85.3333 182.6 13 181 13V43.5L320 136.5L350.5 121.5Z" fill="url(#paint7_linear_249_38487)" stroke="url(#paint8_linear_249_38487)"/>
<path d="M113.265 174.272C116.093 174.272 118.904 174.469 121.697 174.863C124.526 175.221 127.229 175.669 129.808 176.206C132.422 176.707 134.892 177.209 137.22 177.71C139.547 178.211 141.642 178.569 143.504 178.784C143.074 180.073 142.859 182.347 142.859 185.605C142.859 191.943 143.808 197.44 145.706 202.095C145.491 202.739 144.829 203.133 143.719 203.276L141.409 198.335C140.263 195.864 138.885 193.429 137.273 191.03C135.662 188.595 133.729 186.429 131.473 184.531C129.217 182.598 126.585 181.04 123.577 179.858C120.605 178.677 117.168 178.086 113.265 178.086C109.899 178.086 106.909 178.641 104.295 179.751C101.681 180.861 99.3893 182.365 97.4199 184.263C95.4505 186.125 93.7855 188.309 92.4248 190.815C91.0641 193.286 89.9541 195.918 89.0947 198.711C88.2712 201.504 87.6624 204.368 87.2686 207.305C86.9105 210.241 86.7314 213.088 86.7314 215.845C86.7314 220.428 87.3223 224.814 88.5039 229.004C89.7214 233.193 91.6012 236.899 94.1436 240.122C96.6859 243.309 99.9085 245.851 103.812 247.749C107.75 249.647 112.441 250.596 117.884 250.596C128.304 250.596 136.181 247.337 141.517 240.82C142.09 240.82 142.555 240.981 142.913 241.304C143.307 241.626 143.504 242.02 143.504 242.485C141.785 245.028 139.69 247.23 137.22 249.092C134.785 250.954 132.189 252.493 129.432 253.711C126.674 254.893 123.882 255.77 121.053 256.343C118.26 256.916 115.664 257.202 113.265 257.202C110.651 257.202 107.822 256.916 104.778 256.343C101.771 255.806 98.7448 254.893 95.7012 253.604C92.6934 252.314 89.793 250.632 87 248.555C84.2428 246.442 81.79 243.864 79.6416 240.82C77.4932 237.741 75.7744 234.142 74.4854 230.024C73.1963 225.907 72.5518 221.18 72.5518 215.845C72.5518 210.474 73.1963 205.729 74.4854 201.611C75.7744 197.458 77.4932 193.841 79.6416 190.762C81.8258 187.682 84.3145 185.104 87.1074 183.027C89.9362 180.915 92.8545 179.214 95.8623 177.925C98.8701 176.6 101.878 175.669 104.886 175.132C107.894 174.559 110.687 174.272 113.265 174.272ZM150.207 176.045C157.941 176.331 164.172 176.475 168.898 176.475C170.689 176.475 173.571 176.403 177.546 176.26C181.521 176.117 184.582 176.045 186.73 176.045C194.68 176.045 200.928 178.05 205.476 182.061C210.059 186.071 212.351 191.281 212.351 197.69C212.351 202.847 210.829 207.466 207.785 211.548C204.742 215.594 200.588 218.494 195.324 220.249C197.723 224.546 201.018 229.416 205.207 234.858C209.253 240.265 213.103 244.508 216.755 247.588C220.443 250.667 224.4 252.404 228.625 252.798C228.768 253.371 228.84 253.818 228.84 254.141C228.84 254.499 228.768 254.893 228.625 255.322C226.477 255.215 224.185 255.143 221.75 255.107C219.315 255.072 216.594 255.054 213.586 255.054C210.614 255.054 208.322 255.036 206.711 255C197.079 243.792 189.344 232.764 183.508 221.914C180.894 221.914 177.886 221.502 174.484 220.679C174.484 227.625 174.681 236.613 175.075 247.642C175.111 248.573 175.523 249.378 176.311 250.059C177.098 250.703 178.226 251.204 179.694 251.562C181.198 251.921 182.451 252.189 183.454 252.368C184.493 252.511 185.835 252.655 187.482 252.798C187.626 253.514 187.697 253.997 187.697 254.248C187.697 254.535 187.626 254.893 187.482 255.322C181.395 255.107 175.165 255 168.791 255C162.346 255 156.115 255.107 150.1 255.322C149.956 254.893 149.885 254.535 149.885 254.248C149.885 253.639 149.956 253.156 150.1 252.798C151.174 252.69 152.033 252.601 152.678 252.529C153.322 252.458 154.2 252.332 155.31 252.153C156.455 251.974 157.368 251.777 158.049 251.562C158.765 251.312 159.499 251.007 160.251 250.649C161.003 250.291 161.558 249.862 161.916 249.36C162.31 248.859 162.507 248.286 162.507 247.642C162.937 236.434 163.151 225.137 163.151 213.75C163.151 202.148 162.972 192.14 162.614 183.726C162.578 182.795 162.167 182.007 161.379 181.362C160.591 180.682 159.445 180.163 157.941 179.805C156.473 179.447 155.22 179.196 154.182 179.053C153.179 178.874 151.854 178.713 150.207 178.569C150.064 177.925 149.992 177.477 149.992 177.227C149.992 177.012 150.064 176.618 150.207 176.045ZM175.183 179.751H175.075C174.681 192.964 174.484 205.246 174.484 216.597C176.991 217.42 179.533 217.832 182.111 217.832C184.475 217.832 186.587 217.438 188.449 216.65C190.347 215.827 191.905 214.753 193.122 213.428C194.34 212.103 195.342 210.545 196.13 208.755C196.953 206.965 197.526 205.156 197.849 203.33C198.207 201.504 198.386 199.624 198.386 197.69C198.386 192.355 196.918 188.005 193.981 184.639C191.081 181.237 186.945 179.536 181.574 179.536C178.924 179.536 176.794 179.608 175.183 179.751ZM282.486 198.765C281.126 192.212 278.619 187.127 274.967 183.511C271.35 179.894 267 178.086 261.915 178.086C256.938 178.086 253.071 179.268 250.313 181.631C247.592 183.994 246.231 187.145 246.231 191.084C246.231 193.268 246.428 195.076 246.822 196.509C247.216 197.941 248.022 199.338 249.239 200.698C250.457 202.023 252.229 203.205 254.557 204.243C256.884 205.246 259.928 206.213 263.688 207.144C265.729 207.645 267.501 208.11 269.005 208.54C270.545 208.97 272.228 209.561 274.054 210.312C275.916 211.064 277.509 211.87 278.834 212.729C280.195 213.589 281.537 214.663 282.862 215.952C284.223 217.205 285.315 218.602 286.139 220.142C286.998 221.681 287.678 223.507 288.18 225.62C288.717 227.697 288.985 229.971 288.985 232.441C288.985 235.736 288.377 238.779 287.159 241.572C285.942 244.329 284.348 246.657 282.379 248.555C280.41 250.452 278.136 252.064 275.558 253.389C272.979 254.714 270.366 255.68 267.716 256.289C265.066 256.898 262.434 257.202 259.82 257.202C251.871 257.202 243.403 255.143 234.415 251.025C234.594 247.158 234.684 244.777 234.684 243.882C234.684 238.045 234.2 232.227 233.233 226.426C233.627 226.175 234.021 226.05 234.415 226.05C234.916 226.05 235.364 226.175 235.758 226.426C236.51 231.045 237.745 235.127 239.464 238.672C241.218 242.217 243.224 245.028 245.479 247.104C247.735 249.146 250.063 250.685 252.462 251.724C254.897 252.726 257.35 253.228 259.82 253.228C265.442 253.228 269.757 251.777 272.765 248.877C275.808 245.941 277.33 242.074 277.33 237.275C277.33 232.441 276.202 228.807 273.946 226.372C271.726 223.901 267.465 221.896 261.163 220.356C253.285 218.387 247.127 215.487 242.687 211.655C238.282 207.788 236.08 202.686 236.08 196.348C236.08 193.018 236.617 190.046 237.691 187.432C238.801 184.782 240.216 182.669 241.935 181.094C243.689 179.482 245.73 178.158 248.058 177.119C250.385 176.045 252.677 175.311 254.933 174.917C257.224 174.487 259.552 174.272 261.915 174.272C269.005 174.272 276.381 175.92 284.044 179.214C283.829 181.326 283.722 183.529 283.722 185.82C283.722 191.191 284.151 195.506 285.011 198.765C284.545 198.944 284.151 199.033 283.829 199.033C283.471 199.033 283.023 198.944 282.486 198.765Z" fill="white"/>
<defs>
<linearGradient id="paint0_linear_249_38487" x1="180.5" y1="12" x2="180.5" y2="393" gradientUnits="userSpaceOnUse">
<stop stop-color="white"/>
<stop offset="1" stop-color="#555555"/>
</linearGradient>
<linearGradient id="paint1_linear_249_38487" x1="180.5" y1="12.5" x2="180.5" y2="392.5" gradientUnits="userSpaceOnUse">
<stop stop-color="white"/>
<stop offset="1" stop-color="#555555"/>
</linearGradient>
<linearGradient id="paint2_linear_249_38487" x1="180.5" y1="265.5" x2="180.5" y2="280" gradientUnits="userSpaceOnUse">
<stop stop-color="white"/>
<stop offset="1" stop-color="#555555"/>
</linearGradient>
<linearGradient id="paint3_linear_249_38487" x1="180.5" y1="43" x2="180.5" y2="139.5" gradientUnits="userSpaceOnUse">
<stop stop-color="white"/>
<stop offset="1" stop-color="#555555"/>
</linearGradient>
<linearGradient id="paint4_linear_249_38487" x1="180.5" y1="361.5" x2="180.5" y2="265" gradientUnits="userSpaceOnUse">
<stop stop-color="white"/>
<stop offset="1" stop-color="#555555"/>
</linearGradient>
<linearGradient id="paint5_linear_249_38487" x1="94.75" y1="392.5" x2="94.75" y2="269" gradientUnits="userSpaceOnUse">
<stop stop-color="white"/>
<stop offset="1" stop-color="#555555"/>
</linearGradient>
<linearGradient id="paint6_linear_249_38487" x1="94.75" y1="392.5" x2="94.75" y2="269" gradientUnits="userSpaceOnUse">
<stop stop-color="white"/>
<stop offset="1" stop-color="#555555"/>
</linearGradient>
<linearGradient id="paint7_linear_249_38487" x1="265.75" y1="13" x2="265.75" y2="136.5" gradientUnits="userSpaceOnUse">
<stop stop-color="white"/>
<stop offset="1" stop-color="#555555"/>
</linearGradient>
<linearGradient id="paint8_linear_249_38487" x1="265.75" y1="13" x2="265.75" y2="136.5" gradientUnits="userSpaceOnUse">
<stop stop-color="white"/>
<stop offset="1" stop-color="#555555"/>
</linearGradient>
</defs>
</svg>
