<?xml version="1.0" standalone="no"?>
<!DOCTYPE svg PUBLIC "-//W3C//DTD SVG 20010904//EN"
 "http://www.w3.org/TR/2001/REC-SVG-20010904/DTD/svg10.dtd">
<svg version="1.0" xmlns="http://www.w3.org/2000/svg"
 width="810.000000pt" height="810.000000pt" viewBox="0 0 810.000000 810.000000"
 preserveAspectRatio="xMidYMid meet">
<metadata>
Created by potrace 1.14, written by Peter Selinger 2001-2017
</metadata>
<g transform="translate(0.000000,810.000000) scale(0.100000,-0.100000)"
fill="#000000" stroke="none">
<path d="M4024 8084 c-31 -24 -394 -264 -400 -264 -3 0 -10 -5 -17 -11 -7 -6
-100 -69 -207 -140 -107 -71 -202 -133 -210 -139 -8 -6 -148 -98 -310 -204
-162 -107 -300 -199 -306 -204 -5 -5 -21 -15 -35 -22 -13 -7 -26 -16 -29 -20
-4 -5 -48 -33 -102 -65 -22 -13 -350 -232 -363 -242 -6 -4 -109 -73 -230 -153
-121 -80 -221 -148 -223 -152 -2 -5 -8 -8 -14 -8 -5 0 -52 -29 -104 -65 -52
-36 -97 -65 -100 -65 -3 0 -10 -5 -17 -11 -23 -20 -449 -299 -457 -299 -5 0
-10 -4 -12 -8 -3 -9 -93 -72 -102 -72 -3 0 -14 -7 -23 -15 -10 -8 -76 -53
-148 -99 -71 -47 -140 -93 -152 -102 l-23 -17 0 -1659 0 -1658 313 -207 c171
-114 314 -210 317 -213 3 -4 15 -10 28 -14 12 -4 22 -11 22 -15 0 -5 14 -14
30 -21 17 -7 30 -15 30 -19 0 -3 20 -17 45 -30 25 -13 45 -28 45 -32 0 -5 6
-9 14 -9 8 0 16 -3 18 -7 3 -8 95 -73 103 -73 2 0 41 -25 85 -55 44 -30 85
-55 89 -55 5 0 11 -7 15 -15 3 -8 10 -15 15 -15 7 0 788 -512 961 -630 8 -6
146 -97 305 -202 160 -106 417 -276 573 -380 156 -103 287 -188 292 -188 5 0
10 -4 12 -9 1 -5 17 -17 34 -27 17 -11 51 -32 75 -49 24 -16 51 -34 60 -40 9
-5 42 -27 73 -47 l56 -38 303 199 c166 110 307 203 312 208 6 5 62 42 125 83
63 41 120 78 125 82 27 22 389 258 396 258 4 0 9 3 11 8 3 6 109 80 133 92 6
3 86 56 179 117 93 62 172 113 177 113 4 0 9 4 11 8 3 8 141 102 163 111 5 2
14 8 20 13 5 5 91 62 190 128 99 65 185 122 190 127 6 5 26 18 45 29 19 10 37
22 40 25 6 6 299 201 315 209 6 3 132 86 280 185 149 99 276 181 283 183 6 2
12 8 12 13 0 5 6 9 14 9 8 0 16 3 18 8 2 4 63 46 136 95 l132 87 0 1660 0
1660 -297 198 c-164 108 -306 202 -315 207 -9 6 -90 60 -180 120 -90 61 -167
112 -173 115 -30 15 -281 184 -283 192 -2 4 -8 8 -13 8 -5 0 -164 104 -354
230 -190 127 -350 230 -355 230 -4 0 -10 3 -12 8 -1 4 -23 20 -48 37 -46 30
-50 33 -111 72 -19 12 -38 25 -44 30 -5 4 -41 28 -80 53 -38 25 -74 49 -80 53
-5 4 -140 94 -300 199 -159 105 -291 195 -293 199 -2 5 -8 9 -13 9 -5 0 -150
93 -322 208 -171 114 -319 210 -328 214 -9 4 -25 0 -35 -8z m-74 -542 l0 -248
-232 -154 c-128 -85 -237 -157 -243 -159 -5 -2 -12 -7 -15 -10 -5 -7 -58 -43
-75 -51 -5 -3 -133 -87 -283 -187 -150 -101 -277 -183 -282 -183 -5 0 -10 -3
-12 -8 -1 -4 -34 -27 -73 -52 -38 -25 -74 -49 -80 -53 -5 -5 -136 -91 -290
-193 -154 -101 -287 -188 -295 -194 -8 -6 -62 -42 -120 -80 -58 -38 -109 -73
-115 -78 -5 -4 -28 -19 -50 -32 -22 -13 -44 -28 -50 -32 -29 -24 -328 -218
-335 -218 -5 0 -10 -4 -12 -8 -1 -5 -41 -33 -88 -63 -47 -29 -87 -57 -88 -61
-6 -13 -25 -9 -68 11 -21 10 -61 29 -89 41 -48 22 -102 47 -241 110 -58 27
-76 50 -39 50 7 0 15 4 17 8 3 7 314 218 343 232 25 13 220 146 223 153 2 4 8
7 13 7 5 0 31 16 58 35 26 19 51 35 55 35 4 0 16 8 27 18 10 11 32 25 47 33
15 8 32 18 37 22 6 5 111 76 235 157 124 82 232 154 240 160 8 5 38 24 65 42
28 18 52 36 53 40 2 5 8 8 12 8 8 0 311 197 337 220 7 5 15 10 18 10 3 0 11 5
18 11 23 20 480 319 488 319 4 0 9 4 11 8 2 4 21 19 43 32 22 13 45 28 50 33
6 5 170 114 365 242 195 129 360 238 365 243 9 8 47 31 52 32 1 0 2 -112 3
-248z m745 -851 c335 -223 612 -409 615 -412 3 -3 12 -8 20 -12 18 -8 53 -30
60 -38 11 -12 102 -69 110 -69 4 0 10 -4 12 -8 3 -7 1041 -702 1063 -711 5 -2
14 -8 20 -13 26 -22 218 -148 226 -148 5 0 9 -3 9 -7 0 -5 14 -16 31 -26 34
-19 29 -21 294 103 50 23 104 48 120 55 17 7 57 26 90 41 105 49 98 48 93 14
-3 -17 -2 -32 1 -34 3 -2 4 -111 1 -241 -3 -130 -3 -241 0 -245 3 -4 3 -112 0
-240 -3 -128 -3 -236 0 -240 3 -4 3 -112 0 -240 -3 -128 -3 -236 0 -240 3 -4
3 -112 0 -240 -3 -128 -3 -236 0 -240 3 -4 3 -112 0 -240 -3 -127 -3 -237 0
-243 3 -7 3 -100 0 -208 l-5 -196 -90 43 c-281 135 -408 194 -416 194 -5 0 -9
5 -9 12 0 6 -3 8 -7 5 -3 -4 -12 -2 -19 4 -13 11 -23 6 -119 -54 -10 -6 -42
-28 -70 -48 -27 -20 -54 -38 -60 -40 -11 -5 -127 -81 -135 -89 -3 -3 -43 -30
-90 -60 -47 -30 -87 -57 -90 -60 -3 -3 -70 -48 -150 -100 -80 -52 -147 -97
-150 -100 -13 -13 -70 -50 -77 -50 -5 0 -20 -11 -35 -25 -15 -14 -30 -25 -33
-25 -10 0 -100 -63 -103 -72 -2 -4 -10 -8 -17 -8 -7 0 -24 -9 -37 -20 -25 -21
-428 -290 -435 -290 -2 0 -13 -9 -25 -20 -12 -11 -34 -26 -50 -32 -15 -7 -28
-16 -28 -21 0 -4 -8 -11 -18 -15 -24 -10 -556 -365 -560 -374 -2 -5 -8 -8 -13
-8 -11 0 -72 -42 -77 -52 -2 -5 -8 -8 -13 -8 -9 0 -67 -37 -79 -51 -3 -3 -23
-16 -45 -29 -22 -13 -44 -28 -50 -33 -60 -49 -293 -193 -305 -188 -8 3 -50 30
-93 58 -43 29 -81 53 -83 53 -3 0 -10 5 -17 11 -7 6 -91 62 -187 125 -96 63
-245 161 -330 217 -85 56 -162 107 -171 112 -9 6 -27 17 -40 26 -13 9 -44 30
-68 45 -24 16 -56 37 -70 47 -14 9 -34 20 -43 23 -10 4 -18 9 -18 13 0 4 -15
15 -32 26 -35 20 -326 209 -343 223 -5 4 -35 23 -65 42 -30 19 -59 38 -65 43
-5 5 -46 31 -90 60 -44 28 -160 104 -258 169 -98 65 -181 118 -184 118 -3 0
-22 13 -43 30 -21 17 -41 30 -45 30 -4 0 -24 13 -44 28 -20 15 -48 34 -63 41
-16 8 -28 18 -28 23 0 4 -4 8 -10 8 -12 0 -364 232 -368 242 -2 5 -8 8 -14 8
-5 0 -23 9 -39 21 -28 20 -32 20 -62 6 -18 -9 -55 -25 -82 -37 -27 -12 -66
-28 -85 -37 -19 -9 -55 -25 -80 -35 -25 -11 -67 -31 -95 -43 -27 -13 -67 -30
-88 -39 -20 -9 -53 -23 -72 -31 -34 -15 -35 -15 -35 7 0 13 0 43 0 66 0 24 2
48 6 53 3 5 1 9 -5 9 -6 0 -6 11 -1 29 4 15 4 34 0 42 -5 7 -5 20 -1 28 5 8 5
27 1 43 -5 15 -6 28 -2 28 4 0 6 24 4 52 -5 110 -5 586 1 595 3 5 2 15 -3 23
-4 7 -4 24 0 36 6 14 5 26 0 29 -6 3 -6 15 0 30 6 15 6 27 0 30 -6 3 -6 15 0
30 6 15 6 27 0 30 -6 3 -6 15 0 30 6 15 6 27 0 30 -6 3 -6 15 0 30 6 15 6 27
0 30 -6 3 -6 15 0 30 6 15 6 27 0 30 -6 3 -6 15 0 30 6 15 6 27 0 30 -6 3 -6
15 0 30 6 15 6 27 0 30 -6 3 -6 15 0 30 6 15 6 27 0 30 -6 3 -6 15 0 29 5 13
6 27 3 30 -8 7 -7 95 0 102 3 3 1 19 -3 35 -5 16 -5 29 -1 29 5 0 5 18 1 40
-4 22 -5 40 -1 40 3 0 6 16 6 35 0 19 -3 35 -7 35 -4 0 -3 13 2 29 4 15 4 34
0 42 -5 7 -5 20 -1 28 5 8 5 27 1 43 -5 15 -5 28 -1 28 5 0 5 18 1 40 -4 22
-5 40 -1 40 3 0 6 16 6 35 0 19 -4 35 -8 35 -5 0 -5 5 -2 11 9 14 10 123 1
137 -3 6 -2 13 3 17 7 3 7 15 1 30 -6 15 -6 27 0 30 6 3 6 15 0 30 -6 15 -6
27 0 30 6 3 6 15 0 30 -6 15 -6 27 0 30 6 3 6 15 0 30 -6 15 -6 27 0 30 6 3 6
15 0 30 -6 15 -6 27 0 30 6 3 6 15 0 30 -6 15 -6 27 0 30 6 3 6 15 0 30 -6 15
-6 27 0 30 5 3 6 15 0 29 -18 48 5 44 165 -30 250 -114 317 -145 362 -166 l42
-20 106 71 c58 39 110 71 115 71 4 0 10 4 12 8 3 8 232 163 253 171 6 2 12 7
15 10 3 4 30 22 60 41 30 19 60 38 65 43 6 4 46 31 90 60 44 28 82 55 83 59 2
5 8 8 12 8 12 0 104 62 108 72 2 4 7 8 12 8 5 0 116 71 247 158 131 87 402
267 603 399 201 133 370 246 377 252 7 6 15 11 18 11 8 0 69 44 73 53 2 4 9 7
16 7 7 0 21 9 31 20 10 11 21 20 25 20 5 0 295 189 400 260 111 76 115 78 135
67 11 -5 294 -193 630 -416z m2303 -4082 c48 -23 133 -63 188 -90 56 -27 105
-49 108 -49 3 0 20 -9 37 -19 l31 -19 -203 -134 c-112 -74 -366 -242 -564
-374 -198 -131 -364 -241 -370 -244 -26 -13 -310 -206 -313 -212 -2 -5 -10 -8
-18 -8 -8 0 -14 -4 -14 -10 0 -5 -5 -10 -11 -10 -6 0 -43 -22 -82 -49 -173
-119 -588 -391 -596 -391 -5 0 -11 -4 -13 -9 -1 -5 -17 -17 -34 -27 -45 -28
-217 -141 -229 -151 -5 -5 -62 -42 -125 -83 -63 -41 -117 -77 -120 -80 -3 -3
-23 -17 -45 -30 -22 -13 -44 -28 -50 -32 -5 -5 -32 -23 -60 -41 -27 -17 -56
-37 -63 -44 -7 -7 -19 -13 -27 -13 -7 0 -15 -4 -17 -8 -2 -6 -186 -130 -244
-165 -9 -5 -11 45 -10 188 0 107 5 195 9 195 5 0 5 5 1 12 -4 6 -8 32 -8 56
l-1 45 280 186 c154 102 286 192 293 198 7 7 17 13 22 13 5 0 15 6 22 13 20
18 76 57 83 57 7 0 62 38 89 63 11 9 23 17 28 17 4 0 26 12 47 28 21 15 49 34
61 42 12 8 40 27 61 43 21 15 43 27 49 27 5 0 10 5 10 10 0 6 6 10 14 10 8 0
16 3 18 8 4 10 128 92 139 92 5 0 9 3 9 8 0 4 30 25 66 47 36 22 71 45 78 50
16 14 788 529 801 534 5 2 14 10 18 17 4 8 12 14 16 14 4 0 129 81 277 180
148 99 270 180 272 180 1 0 42 -18 90 -41z"/>
<path d="M2657 4614 c-1 -1 -24 -4 -52 -8 -168 -19 -320 -84 -450 -190 -27
-22 -56 -48 -63 -58 -7 -9 -18 -23 -25 -30 -40 -41 -104 -158 -131 -239 -42
-126 -56 -373 -28 -504 44 -206 152 -376 304 -479 50 -33 148 -86 148 -79 0 3
6 1 13 -4 6 -6 23 -13 37 -17 105 -29 131 -35 180 -42 102 -13 213 -7 305 18
22 5 47 12 56 13 28 5 130 56 189 93 66 41 172 149 168 171 -6 31 -38 23 -84
-22 -52 -52 -133 -97 -219 -123 -62 -18 -280 -26 -355 -12 -213 40 -385 209
-444 438 -39 150 -39 361 -1 515 9 33 18 71 21 85 3 13 24 63 47 109 49 100
143 202 222 241 28 13 51 23 52 23 1 -1 22 4 45 11 38 12 178 13 233 3 86 -15
192 -70 262 -135 51 -47 153 -185 153 -207 0 -6 6 -17 13 -23 6 -7 12 -16 13
-20 2 -16 43 -100 52 -106 5 -3 15 1 21 8 9 11 8 27 -4 69 -20 70 -24 90 -31
162 -9 103 -11 165 -5 165 3 0 6 20 6 45 0 42 -1 45 -27 45 -34 0 -26 -1 -90
15 -29 8 -54 12 -56 10 -2 -2 -16 1 -31 6 -14 6 -39 12 -56 14 -16 2 -41 6
-55 9 -14 4 -43 8 -65 11 -22 2 -53 7 -69 10 -27 6 -194 13 -199 9z"/>
<path d="M5638 4614 c-2 -1 -25 -4 -53 -7 -72 -8 -93 -14 -165 -43 -138 -56
-218 -150 -248 -289 -13 -62 -9 -193 7 -223 6 -12 9 -22 5 -22 -11 0 55 -108
84 -138 70 -71 184 -134 322 -176 47 -15 118 -36 157 -49 40 -12 73 -25 73
-28 0 -4 10 -9 23 -13 54 -13 113 -91 132 -174 36 -156 -15 -296 -135 -369
-85 -52 -244 -61 -345 -19 -126 53 -232 171 -290 321 -11 28 -20 52 -20 55
-11 60 -31 127 -39 132 -6 4 -17 8 -25 8 -13 0 -13 -17 5 -170 2 -19 4 -102 4
-183 l1 -148 37 -16 c64 -27 76 -32 138 -52 63 -21 83 -26 175 -41 243 -42
468 20 615 170 43 43 99 141 112 195 3 17 6 75 6 130 -1 180 -59 291 -202 382
-29 19 -62 36 -74 38 -11 2 -25 8 -32 13 -6 5 -31 14 -56 21 -25 7 -56 17 -70
22 -14 5 -36 11 -50 13 -104 21 -221 66 -274 107 -58 44 -87 105 -90 190 -7
189 121 297 339 284 136 -8 252 -93 326 -240 22 -44 40 -80 39 -80 -1 0 1 -12
5 -26 3 -14 7 -34 9 -45 2 -13 11 -19 29 -20 24 -1 26 2 22 27 -16 88 -21 156
-19 256 l2 112 -72 25 c-80 29 -169 52 -236 61 -49 7 -168 13 -172 9z"/>
<path d="M4130 4583 c0 -5 -155 -9 -345 -9 -318 1 -345 0 -345 -16 0 -20 11
-28 48 -34 137 -23 187 -43 198 -78 15 -45 20 -745 10 -1115 -5 -168 -9 -208
-22 -222 -25 -28 -129 -59 -206 -63 -26 -1 -42 -24 -29 -42 8 -12 744 -12 752
0 13 17 -3 44 -26 44 -52 -1 -157 26 -187 46 -17 11 -33 31 -35 44 -2 13 -4
141 -6 285 -2 229 0 262 13 258 21 -4 57 -10 107 -15 23 -2 46 -7 52 -10 5 -3
26 -37 47 -74 46 -83 194 -306 205 -310 5 -2 9 -10 9 -17 0 -7 3 -15 8 -17 4
-1 37 -41 74 -88 37 -47 80 -100 95 -118 l28 -33 217 -2 c168 -2 219 1 223 10
8 22 -4 39 -30 41 -39 3 -118 36 -168 71 -65 44 -181 162 -242 246 -17 22 -32
42 -35 45 -26 25 -175 245 -186 274 -4 11 3 17 23 22 43 11 133 72 185 127 81
83 124 194 122 312 -1 88 -9 125 -39 189 -69 143 -219 230 -417 242 -44 2 -84
7 -89 10 -5 3 -9 1 -9 -3z m49 -90 c20 -9 37 -15 39 -14 1 1 15 -5 30 -13 61
-31 128 -128 148 -211 13 -55 7 -208 -10 -264 -25 -85 -95 -191 -125 -191 -6
0 -11 -4 -11 -9 0 -5 -26 -18 -57 -28 -61 -20 -168 -23 -228 -5 l-30 9 2 363
c2 278 5 365 14 371 23 14 189 8 228 -8z"/>
</g>
</svg>
